<?xml version="1.0" encoding="UTF-8" standalone="no"?>
<!-- Created with Inkscape (http://www.inkscape.org/) -->

<svg
   width="23.589275mm"
   height="6.88097mm"
   viewBox="0 0 23.589275 6.88097"
   version="1.1"
   id="svg1142"
   inkscape:version="1.2 (dc2aedaf03, 2022-05-15)"
   sodipodi:docname="forestly-logo.svg"
   xmlns:inkscape="http://www.inkscape.org/namespaces/inkscape"
   xmlns:sodipodi="http://sodipodi.sourceforge.net/DTD/sodipodi-0.dtd"
   xmlns="http://www.w3.org/2000/svg"
   xmlns:svg="http://www.w3.org/2000/svg">
  <sodipodi:namedview
     id="namedview1144"
     pagecolor="#ffffff"
     bordercolor="#666666"
     borderopacity="1.0"
     inkscape:showpageshadow="2"
     inkscape:pageopacity="0.0"
     inkscape:pagecheckerboard="0"
     inkscape:deskcolor="#d1d1d1"
     inkscape:document-units="mm"
     showgrid="false"
     inkscape:zoom="5.9651515"
     inkscape:cx="25.397511"
     inkscape:cy="14.75235"
     inkscape:window-width="1920"
     inkscape:window-height="1137"
     inkscape:window-x="1912"
     inkscape:window-y="-8"
     inkscape:window-maximized="1"
     inkscape:current-layer="layer1" />
  <defs
     id="defs1139" />
  <g
     inkscape:label="Ebene 1"
     inkscape:groupmode="layer"
     id="layer1"
     transform="translate(-72.16369,-134.59177)">
    <path
       d="m 72.16369,134.59177 h 23.589276 v 6.88097 H 72.16369 Z"
       style="fill:#e7d8bc;fill-opacity:1;stroke-width:1.865;stroke-linecap:round;stroke-linejoin:round"
       id="rect2919" />
    <g
       style="font-style:normal;font-weight:normal;font-size:11.358px;line-height:1.25;font-family:sans-serif;letter-spacing:0.276143px;fill:#2d2d2d;fill-opacity:1;stroke:none;stroke-width:0.264582"
       id="text2931"
       aria-label="Forestly"
       transform="translate(34.454352,80.380985)">
      <path
         id="path900"
         style="font-style:normal;font-variant:normal;font-weight:normal;font-stretch:normal;font-family:'Greasy Spoon';-inkscape-font-specification:'Greasy Spoon';fill:#2d2d2d;fill-opacity:1;stroke-width:0.264582"
         d="m 44.908478,59.64986 h 0.499131 c 0.08873,0 0.116464,-0.01664 0.116464,-0.105372 0.0055,-0.133101 0.01109,-0.183014 -0.09983,-0.183014 -0.09428,0.0055 -0.110918,-0.02773 -0.105372,-0.116464 v -0.687692 c 0,-0.04991 0,-0.160831 -0.0055,-0.332753 v -0.332754 c 0,-0.133102 0.04437,-0.166377 0.166377,-0.166377 h 0.06101 c 0.244019,0 0.249565,0 0.260657,0.244019 0.0055,0.08319 0.02218,0.07764 0.127556,0.08319 0.08319,0 0.116463,-0.0055 0.116463,-0.08873 -0.01109,-0.260657 -0.01109,-0.521314 0,-0.787517 0,-0.08873 0.01664,-0.06655 -0.127555,-0.07764 -0.08319,-0.0055 -0.116464,0 -0.116464,0.08873 0,0.221835 -0.0055,0.227381 -0.238474,0.227381 h -0.127555 c -0.09983,0 -0.12201,-0.02218 -0.12201,-0.116464 0.0055,-0.105372 0.0055,-0.260657 0.0055,-0.460309 v -0.46031 -0.194106 c 0,-0.06655 0,-0.116464 0.0055,-0.138648 -0.01109,-0.07764 0.01664,-0.116463 0.06655,-0.122009 0.24402,0 0.377122,-0.0055 0.410397,0 0.06655,0 0.09428,0.04437 0.08873,0.122009 v 0.421489 c 0,0.07764 0.03328,0.07764 0.12201,0.07764 0.09983,0 0.127556,0 0.127556,-0.07764 -0.0055,-0.188561 -0.0055,-0.421489 0,-0.709875 0,-0.05546 -0.02773,-0.08873 -0.08873,-0.08319 -0.482493,0 -0.870706,0 -1.159092,-0.0055 -0.105372,0 -0.08873,0.02218 -0.08873,0.133102 -0.0055,0.110918 -0.01109,0.144193 0.08873,0.127556 0.09983,-0.01109 0.122009,0.02218 0.122009,0.116463 -0.0055,0.959441 -0.0055,2.024253 0,3.194438 0,0.09983 -0.01664,0.133101 -0.116463,0.12201 -0.105373,-0.0055 -0.09428,0.01664 -0.09428,0.171923 -0.0055,0.09983 0.01109,0.116463 0.105372,0.116463 z" />
      <path
         id="path902"
         style="font-style:normal;font-variant:normal;font-weight:normal;font-stretch:normal;font-family:'Greasy Spoon';-inkscape-font-specification:'Greasy Spoon';fill:#2d2d2d;fill-opacity:1;stroke-width:0.264582"
         d="m 47.181145,59.64986 c 0.08319,0.0055 0.171922,-0.0055 0.260657,-0.02773 0.227382,-0.04991 0.3383,-0.183015 0.3383,-0.399305 0.0055,-1.037083 0.0055,-2.085258 0,-3.15007 0,-0.194106 -0.09983,-0.321662 -0.305025,-0.377121 -0.06101,-0.01664 -0.144193,-0.02773 -0.260657,-0.02773 -0.08319,0 -0.160831,0.0055 -0.24402,0.02218 -0.210744,0.02218 -0.321662,0.12201 -0.332753,0.299478 v 3.327539 c 0.07764,0.210745 0.255111,0.321663 0.543498,0.332754 z m 0.194106,-0.288386 c -0.155285,0.04437 -0.282841,0.03327 -0.382667,-0.03328 -0.03328,-0.02218 -0.04991,-0.08319 -0.04991,-0.183014 v -2.967056 c 0,-0.199652 0.05546,-0.255111 0.266203,-0.255111 0.210744,-0.0055 0.277295,0.06101 0.277295,0.260657 V 59.123 c 0,0.144193 0,0.205198 -0.110918,0.238474 z" />
      <path
         id="path904"
         style="font-style:normal;font-variant:normal;font-weight:normal;font-stretch:normal;font-family:'Greasy Spoon';-inkscape-font-specification:'Greasy Spoon';fill:#2d2d2d;fill-opacity:1;stroke-width:0.264582"
         d="m 48.388999,59.64986 h 0.515768 c 0.08873,0.0055 0.09983,-0.02773 0.105372,-0.116463 0.01109,-0.12201 0.01109,-0.166377 -0.09428,-0.171923 -0.105372,0 -0.116464,-0.02773 -0.116464,-0.127556 0.0055,-0.133102 0.0055,-0.549044 0.0055,-1.258919 0,-0.271749 0,-0.271749 0.271749,-0.271749 0.305024,0 0.354937,0.04991 0.354937,0.349392 v 1.380928 c 0,0.133102 0.0721,0.205199 0.210745,0.210744 0.08873,0.0055 0.271749,0.02773 0.266203,-0.0721 0,-0.01109 0,-0.03328 0.0055,-0.06655 0,-0.05546 0.01109,-0.138647 -0.06101,-0.138647 -0.08873,0 -0.133102,-0.061 -0.133102,-0.188561 0.0055,-0.04991 0.0055,-0.232928 0,-0.543498 0,-0.221836 0,-0.404851 0.0055,-0.549044 0.01109,-0.288387 -0.05546,-0.465855 -0.321662,-0.537952 0.244019,-0.155285 0.277295,-0.199652 0.277295,-0.366029 0.0055,-0.476948 0.0055,-0.848523 0,-1.125818 -0.0055,-0.493585 -0.360484,-0.388213 -1.29774,-0.388213 -0.08873,0 -0.105372,0.03882 -0.09983,0.127556 0.0055,0.08873 0.01109,0.133102 0.105373,0.133102 0.08873,0 0.110918,0.02218 0.110918,0.110918 -0.0055,1.031537 -0.0055,2.101895 0,3.211075 0,0.08873 -0.02218,0.110918 -0.110918,0.110918 -0.09983,0 -0.08873,0.01109 -0.09983,0.166377 -0.01109,0.08873 0,0.127555 0.09983,0.122009 z m 0.826338,-2.234997 c -0.410396,0.02218 -0.410396,0.02218 -0.410396,-0.366029 v -0.388213 c 0,-0.371575 0,-0.582319 -0.0055,-0.626686 0,-0.08319 0.02773,-0.105372 0.116464,-0.105372 h 0.299478 c 0.127556,0 0.188561,0.06655 0.188561,0.18856 v 1.103634 c 0,0.12201 -0.06655,0.183015 -0.188561,0.194106 z" />
      <path
         id="path906"
         style="font-style:normal;font-variant:normal;font-weight:normal;font-stretch:normal;font-family:'Greasy Spoon';-inkscape-font-specification:'Greasy Spoon';fill:#2d2d2d;fill-opacity:1;stroke-width:0.264582"
         d="m 50.450921,59.64986 c 0.149739,-0.0055 0.3383,-0.0055 0.576773,0 h 0.532407 c 0.08873,0 0.133101,-0.02773 0.133101,-0.08319 0,-0.24402 -0.0055,-0.515769 0,-0.831885 0,-0.04437 -0.02773,-0.0721 -0.08319,-0.0721 -0.12201,-0.01664 -0.166377,0.01109 -0.166377,0.144194 v 0.12201 c -0.0055,0.221836 -0.01664,0.349391 -0.03882,0.382667 -0.05546,0.06655 -0.171923,0.05546 -0.282841,0.04991 h -0.12201 c -0.09983,0.0055 -0.133102,-0.02218 -0.133102,-0.12201 0.0055,-0.04991 0.0055,-0.277295 0.0055,-0.693237 v -0.615595 c 0,-0.199652 0,-0.205198 0.21629,-0.205198 0.249566,0 0.255112,0.0055 0.260658,0.238473 0,0.08873 0.03328,0.08873 0.116463,0.08873 0.105372,0 0.133102,0 0.133102,-0.09428 -0.01109,-0.266203 -0.01109,-0.521314 0,-0.770879 0,-0.08873 -0.03328,-0.09428 -0.116464,-0.08873 -0.05546,0 -0.08873,0.0055 -0.09428,0.0055 -0.02773,0.0055 -0.03882,0.03328 -0.03882,0.08319 0,0.221835 -0.0055,0.227381 -0.249566,0.227381 h -0.127556 c -0.08319,-0.0055 -0.105372,-0.02773 -0.09983,-0.105372 v -1.275556 c -0.0055,-0.07764 0.01664,-0.105372 0.09983,-0.105372 0.171923,0.0055 0.293933,0.0055 0.377122,0 0.06655,0 0.09983,0.02773 0.09428,0.09428 v 0.21629 c 0.0055,0.08873 0,0.160831 0,0.210744 -0.01109,0.08873 0.03327,0.105372 0.110918,0.09428 h 0.04991 c 0.01664,0.0055 0.03328,0.0055 0.04437,0 0.02773,-0.0055 0.04437,-0.03327 0.04437,-0.08319 -0.0055,-0.194107 -0.0055,-0.427034 0,-0.704329 0,-0.05546 -0.02773,-0.08319 -0.09428,-0.08319 -0.52686,0 -0.909527,0 -1.142455,-0.0055 -0.09983,0 -0.110918,0.03882 -0.09983,0.127556 0.0055,0.144193 -0.01664,0.149739 0.09428,0.133102 0.07764,-0.01109 0.116464,0.02773 0.116464,0.110918 -0.0055,1.136909 -0.0055,2.207267 0,3.205529 0,0.09983 -0.02773,0.116464 -0.12201,0.116464 -0.08319,0 -0.07764,0.01664 -0.08873,0.160831 -0.01109,0.08319 0.02218,0.127555 0.09428,0.127555 z m 0.937257,-2.545567 0.0055,-0.0055 c -0.0055,0 -0.0055,0 -0.0055,0.0055 z" />
      <path
         id="path908"
         style="font-style:normal;font-variant:normal;font-weight:normal;font-stretch:normal;font-family:'Greasy Spoon';-inkscape-font-specification:'Greasy Spoon';fill:#2d2d2d;fill-opacity:1;stroke-width:0.264582"
         d="m 52.806776,59.638769 c 0.765334,0.09428 0.654416,-0.659962 0.571228,-1.275557 -0.01109,-0.08319 -0.04437,-0.194106 -0.09983,-0.327208 -0.0721,-0.188561 -0.232927,-0.443672 -0.482493,-0.754242 -0.249565,-0.321662 -0.349391,-0.704329 -0.299478,-1.142455 0.01664,-0.155285 0.07764,-0.205199 0.271749,-0.210744 0.205198,0 0.277295,0.04991 0.277295,0.205198 0.01109,0.210744 0.01109,0.360483 0,0.438126 0,0.05546 0.01664,0.08319 0.05546,0.09428 h 0.06101 c 0.02773,0 0.04437,0 0.05546,0.0055 0.09428,0.01109 0.133102,0 0.133102,-0.09983 -0.01109,-0.194107 -0.01109,-0.449218 0,-0.776426 0,-0.08319 -0.03882,-0.116464 -0.110918,-0.105372 -0.12201,0.01109 -0.271749,0.01109 -0.443672,-0.01664 -0.393759,-0.04991 -0.593411,0.12201 -0.593411,0.526861 v 0.366029 c -0.01109,0.388213 0.393759,0.948349 0.43258,0.992716 0.371575,0.55459 0.521315,1.075904 0.454764,1.569489 v 0.01109 0.01664 c -0.04991,0.177469 -0.105372,0.24402 -0.293933,0.24402 -0.21629,0 -0.293932,-0.06101 -0.293932,-0.238474 -0.0055,-0.338299 -0.0055,-0.582319 0,-0.732058 0.01109,-0.08873 0.01664,-0.0721 -0.160831,-0.08319 -0.09428,-0.01109 -0.144194,0.02218 -0.144194,0.08873 v 0.271749 c 0.0055,0.110918 0.0055,0.205198 0.0055,0.271749 0,0.327208 0,0.504676 -0.0055,0.549044 -0.0055,0.0721 0.03328,0.09983 0.09983,0.08873 0.06655,-0.01664 0.238474,-0.0055 0.510223,0.02218 z" />
      <path
         id="path910"
         style="font-style:normal;font-variant:normal;font-weight:normal;font-stretch:normal;font-family:'Greasy Spoon';-inkscape-font-specification:'Greasy Spoon';fill:#2d2d2d;fill-opacity:1;stroke-width:0.264582"
         d="m 54.469393,59.64986 h 0.515769 c 0.08873,0 0.09428,-0.03327 0.08873,-0.110918 -0.0055,-0.166377 0.01109,-0.177468 -0.08873,-0.177468 -0.110918,0.0055 -0.116464,-0.02773 -0.116464,-0.138648 v -3.039152 c 0,-0.255111 0,-0.255111 0.260657,-0.255111 0.09983,0 0.12201,0.02218 0.12201,0.122009 -0.0055,0.061 -0.0055,0.160831 -0.0055,0.299479 0.0055,0.127556 0.0055,0.227382 0,0.299478 0,0.06101 0.07764,0.09428 0.144193,0.08873 0.110918,-0.0055 0.155285,-0.0055 0.155285,-0.09428 V 55.75664 c 0.0055,-0.05546 -0.02773,-0.08873 -0.08873,-0.08873 -0.482493,0.0055 -0.976078,0.0055 -1.469663,0 -0.0721,0 -0.105372,0.03328 -0.105372,0.09428 v 0.892889 c 0,0.09983 -0.0055,0.08319 0.166377,0.09428 0.09428,0.01109 0.144193,-0.02218 0.144193,-0.09428 -0.0055,-0.09983 -0.0055,-0.249565 -0.0055,-0.460309 0,-0.271749 0,-0.266203 0.271749,-0.266203 0.08873,0 0.105372,0.02218 0.105372,0.110918 v 3.211075 c 0,0.08319 -0.01664,0.110918 -0.105372,0.110918 -0.09983,0 -0.09983,0.04991 -0.105372,0.160831 0,0.09983 0.01664,0.133101 0.116464,0.127555 z" />
      <path
         id="path912"
         style="font-style:normal;font-variant:normal;font-weight:normal;font-stretch:normal;font-family:'Greasy Spoon';-inkscape-font-specification:'Greasy Spoon';fill:#2d2d2d;fill-opacity:1;stroke-width:0.264582"
         d="m 56.087644,59.64986 h 1.142455 c 0.0721,0 0.105372,-0.03882 0.105372,-0.105372 V 58.4464 c 0,-0.155285 -0.255111,-0.138647 -0.255111,-0.02773 v 0.521314 c -0.01109,0.438126 -0.01664,0.43258 -0.438126,0.421489 -0.12201,0 -0.138648,-0.03882 -0.138648,-0.160831 0.0055,-0.859615 0.0055,-1.907789 0,-3.144525 0,-0.09983 0.01664,-0.12201 0.116464,-0.12201 0.04437,-0.0055 0.06655,-0.01664 0.08319,-0.04437 0.01109,-0.03328 0.05546,-0.21629 -0.09428,-0.21629 h -0.51577 c -0.07764,0 -0.110918,0.03882 -0.105372,0.12201 0.01109,0.116464 0,0.133102 0.09983,0.138647 0.09983,0 0.116464,0.02218 0.116464,0.12201 -0.0055,0.177469 -0.0055,0.704329 -0.0055,1.580581 0,0.881798 0,1.414204 0.0055,1.591673 0,0.09983 -0.01109,0.133102 -0.12201,0.133102 -0.04437,0.0055 -0.0721,0.02773 -0.08319,0.06101 0,0.01109 -0.04991,0.227381 0.08873,0.227381 z" />
      <path
         id="path914"
         style="font-style:normal;font-variant:normal;font-weight:normal;font-stretch:normal;font-family:'Greasy Spoon';-inkscape-font-specification:'Greasy Spoon';fill:#2d2d2d;fill-opacity:1;stroke-width:0.264582"
         d="m 58.38804,59.64986 h 0.521315 c 0.09428,0 0.116463,-0.03882 0.116463,-0.122009 -0.01109,-0.144194 0,-0.166377 -0.116463,-0.166377 -0.08873,0 -0.105373,-0.02218 -0.105373,-0.105372 0.0055,-0.110918 0.0055,-0.266204 0.0055,-0.454764 v -0.454764 c 0,-0.288386 0.0055,-0.454763 0.01109,-0.488039 0.02773,-0.12201 0.177469,-0.74315 0.449218,-1.85233 0.01664,-0.06101 0.03882,-0.09428 0.07764,-0.09983 0.04437,-0.01109 0.04437,-0.03328 0.04437,-0.199652 0,-0.03328 -0.03882,-0.04991 -0.105372,-0.05546 h -0.377121 c -0.08873,0 -0.09983,0.02218 -0.110918,0.110918 -0.01109,0.09983 0.02218,0.149739 0.09983,0.149739 0.08319,0 0.09983,0.01109 0.07764,0.09428 -0.03327,0.127556 -0.138647,0.55459 -0.31057,1.270011 -0.0055,0 -0.01109,0 -0.02773,0.0055 -0.07764,-0.277295 -0.293932,-1.037083 -0.382666,-1.358745 0.0055,-0.0055 0.02773,-0.01109 0.0721,-0.01109 0.116464,0 0.12201,-0.03327 0.127556,-0.144193 0.0055,-0.09428 -0.02773,-0.116464 -0.127556,-0.116464 h -0.393759 c -0.061,0.0055 -0.09428,0.02773 -0.09983,0.07764 -0.0055,0.110918 0.01109,0.166377 0.03882,0.171923 0.04437,0.01109 0.08319,0.05546 0.105372,0.127556 0.171922,0.598957 0.293932,1.037083 0.371575,1.319924 0.210744,0.809701 0.166377,0.74315 0.166377,1.27001 -0.0055,0.288387 -0.0055,0.493585 0,0.615595 0,0.105372 -0.02773,0.127556 -0.127556,0.127556 -0.06655,0 -0.09428,0.04991 -0.08873,0.160831 0.0055,0.110918 0,0.127555 0.08873,0.127555 z" />
    </g>
    <path
       d="m 75.647857,135.88468 a 2.1477726,2.1477726 0 0 0 -2.12155,2.1476 2.1477726,2.1477726 0 0 0 2.14759,2.14759 2.1477726,2.1477726 0 0 0 2.14816,-2.14759 2.1477726,2.1477726 0 0 0 -2.14816,-2.1476 2.1477726,2.1477726 0 0 0 -0.026,0 z m -0.34851,0.53413 a 0.23669736,0.23669736 0 0 1 0.20833,0.12356 c 0.0177,-0.001 0.0357,-0.005 0.0532,-0.006 0.0914,-0.002 0.18107,0.003 0.26705,0.0144 0.17187,0.0232 0.33064,0.0717 0.46876,0.13187 0.13809,0.0602 0.25558,0.13257 0.34629,0.20611 0.0128,0.0104 0.0215,0.0202 0.0332,0.0305 a 0.23669736,0.23669736 0 0 1 0.0709,-0.0111 0.23669736,0.23669736 0 0 1 0.23659,0.23715 0.23669736,0.23669736 0 0 1 -0.0315,0.11691 c 0.13631,0.1979 0.18555,0.38219 0.16733,0.53856 -0.0122,0.10449 -0.0526,0.19328 -0.10638,0.26485 a 0.23669736,0.23669736 0 0 1 0.0144,0.0814 0.23669736,0.23669736 0 0 1 -0.23659,0.23659 0.23669736,0.23669736 0 0 1 -0.17896,-0.082 c -0.13473,0.0389 -0.23872,0.0559 -0.3452,0.0687 a 0.23669736,0.23669736 0 0 1 -0.0842,0.12245 c 0.0187,0.0737 0.0394,0.14944 0.0532,0.24324 0.0248,0.16925 0.0312,0.36038 -0.0227,0.52471 a 0.23669736,0.23669736 0 0 1 0.0526,0.14849 0.23669736,0.23669736 0 0 1 -0.2366,0.23659 0.23669736,0.23669736 0 0 1 -0.1773,-0.0798 c -5.7e-4,0 -5.7e-4,5.7e-4 -10e-4,5.7e-4 -0.0997,0.0202 -0.22178,0.0303 -0.35017,0.0222 -0.18507,-0.0118 -0.38822,-0.0638 -0.54299,-0.18949 a 0.23669736,0.23669736 0 0 1 -0.077,0.0127 0.23669736,0.23669736 0 0 1 -0.23659,-0.23659 0.23669736,0.23669736 0 0 1 0.16179,-0.2244 c 0.0175,-0.19548 0.0676,-0.47518 0.23382,-0.71365 a 0.23669736,0.23669736 0 0 1 -0.0255,-0.10028 c -0.0825,-0.0364 -0.1745,-0.0816 -0.26596,-0.13298 -0.0874,-0.0491 -0.16913,-0.10321 -0.23603,-0.15957 a 0.23669736,0.23669736 0 0 1 -0.0505,0.005 0.23669736,0.23669736 0 0 1 -0.23659,-0.23659 0.23669736,0.23669736 0 0 1 0.13242,-0.21221 c 0.018,-0.20351 0.12713,-0.37796 0.26984,-0.50698 0.13005,-0.11758 0.28569,-0.20182 0.43661,-0.25876 a 0.23669736,0.23669736 0 0 1 0.23549,-0.21609 z m 0.374,0.31028 c -0.0494,-0.001 -0.1001,0.002 -0.15071,0.006 a 0.23669736,0.23669736 0 0 1 -0.0233,0.0476 0.23669736,0.23669736 0 0 1 -5.7e-4,5.7e-4 l 0.26264,0.37178 a 0.23669736,0.23669736 0 0 1 0.0548,-0.007 0.23669736,0.23669736 0 0 1 0.19116,0.097 l 0.50532,-0.1302 a 0.23669736,0.23669736 0 0 1 0.0266,-0.0826 c -0.003,-0.002 -0.004,-0.005 -0.007,-0.007 -0.0764,-0.062 -0.18158,-0.12704 -0.30585,-0.18118 -0.15812,-0.0689 -0.34885,-0.10977 -0.55296,-0.1147 z m -0.55796,0.0748 c -0.12954,0.0507 -0.26408,0.12468 -0.37011,0.22052 -0.11336,0.10255 -0.1919,0.22183 -0.21055,0.36403 a 0.23669736,0.23669736 0 0 1 0.12854,0.1014 l 0.92254,-0.1557 a 0.23669736,0.23669736 0 0 1 0.0315,-0.0776 l -0.26263,-0.37178 a 0.23669736,0.23669736 0 0 1 -0.0554,0.007 0.23669736,0.23669736 0 0 1 -0.1834,-0.0881 z m 1.44171,0.48094 -0.50588,0.13076 a 0.23669736,0.23669736 0 0 1 -0.007,0.0344 l 0.62886,0.49146 a 0.23669736,0.23669736 0 0 1 0.11858,-0.031 0.23669736,0.23669736 0 0 1 0.0998,0.0216 c 0.0265,-0.0428 0.0468,-0.0937 0.0532,-0.15237 0.0123,-0.10579 -0.0193,-0.24319 -0.13021,-0.40724 a 0.23669736,0.23669736 0 0 1 -0.0665,0.009 0.23669736,0.23669736 0 0 1 -0.19004,-0.097 z m -0.94747,0.22495 -0.917,0.15404 a 0.23669736,0.23669736 0 0 1 -0.0288,0.0715 c 0.0499,0.038 0.10339,0.0764 0.17064,0.11413 0.0875,0.0491 0.17035,0.0875 0.2438,0.11802 a 0.23669736,0.23669736 0 0 1 0.17232,-0.0737 0.23669736,0.23669736 0 0 1 0.0582,0.008 c 0.0526,-0.0696 0.11298,-0.14874 0.17398,-0.22827 0.0648,-0.0845 0.0784,-0.10075 0.12688,-0.16346 z m 0.35295,0.10085 0.11081,0.45988 a 0.23669736,0.23669736 0 0 1 0.17343,0.11968 c 0.0942,-0.0127 0.19785,-0.0321 0.30807,-0.062 a 0.23669736,0.23669736 0 0 1 0.008,-0.0476 z m -0.21,0.002 c -0.0332,0.043 -0.0632,0.0823 -0.12965,0.169 -0.0603,0.0786 -0.11998,0.15592 -0.17177,0.22439 a 0.23669736,0.23669736 0 0 1 0.0327,0.0853 l 0.3607,0.0798 a 0.23669736,0.23669736 0 0 1 0.0577,-0.0587 l -0.11968,-0.49368 a 0.23669736,0.23669736 0 0 1 -0.0299,-0.006 z m -0.30751,0.65159 a 0.23669736,0.23669736 0 0 1 -0.006,0.009 l 0.15403,0.25599 0.2183,-0.16401 a 0.23669736,0.23669736 0 0 1 -0.004,-0.0216 l -0.36015,-0.0798 z m -0.26429,0.0931 c -0.12729,0.19665 -0.17924,0.43927 -0.1967,0.60561 a 0.23669736,0.23669736 0 0 1 0.0194,0.0105 l 0.44825,-0.33743 -0.16345,-0.2715 a 0.23669736,0.23669736 0 0 1 -0.0377,0.003 0.23669736,0.23669736 0 0 1 -0.0698,-0.01 z m 0.73636,0.14961 -0.23271,0.17453 0.29921,0.4959 a 0.23669736,0.23669736 0 0 1 0.0454,-0.004 0.23669736,0.23669736 0 0 1 0.0221,0.001 0.23669736,0.23669736 0 0 1 0.002,5.7e-4 c 0.0292,-0.11898 0.029,-0.26845 0.007,-0.41279 -0.0128,-0.0871 -0.0314,-0.15423 -0.0488,-0.22218 a 0.23669736,0.23669736 0 0 1 -0.0953,-0.0327 z m -0.374,0.28091 -0.43384,0.32635 a 0.23669736,0.23669736 0 0 1 0.007,0.0615 0.23669736,0.23669736 0 0 1 -0.0216,0.0992 c 0.11455,0.0856 0.26417,0.12886 0.41667,0.13851 0.10243,0.007 0.20038,-0.002 0.28035,-0.0166 a 0.23669736,0.23669736 0 0 1 0.0427,-0.12245 z"
       style="fill:#2d2d2d;fill-opacity:1;stroke-width:0.1;stroke-linecap:round;stroke-linejoin:round"
       id="path2933" />
  </g>
</svg>
