<?xml version="1.0" encoding="UTF-8"?>
<svg xmlns="http://www.w3.org/2000/svg" xmlns:xlink="http://www.w3.org/1999/xlink" version="1.1" id="Ebene_1" x="0px" y="0px" viewBox="0 0 746.67 363.31" style="enable-background:new 0 0 746.67 363.31;" xml:space="preserve">
<g>
	<path d="M541.46,204.91c59.57,0,97.28-32.96,97.28-100.13V0.02h-48.8v106.66c0,35.17-18.06,53.24-47.85,53.24   c-29.79,0-47.85-18.7-47.85-54.82V0.02h-48.8v106.34C445.44,171.64,481.88,204.91,541.46,204.91L541.46,204.91z M101.08,122.52   c0,25.67-11.41,36.76-29.79,36.76c-15.53,0-27.89-8.24-40.56-22.18L0,171.32c15.21,18.06,38.03,33.27,72.57,33.27   c24.08,0,44.05-6.97,57.67-20.6c13.31-13.31,20.91-32.96,20.91-59.26V0.02h-50.07V122.52L101.08,122.52z M409.21,0L298.3,95.02   L187.39,0v58.62l110.91,95l110.91-95V0L409.21,0z M409.21,153.62H298.3H187.39v48.23h221.82V153.62L409.21,153.62z"/>
	<g>
		<path d="M187.69,258.26h8.47v30.8h19.19v7.7h-27.66V258.26z"/>
		<path d="M220.8,258.26h8.47v38.5h-8.47V258.26z"/>
	</g>
	<g>
		<path d="M246.35,266.06h-11.71v-7.81h31.9v7.81h-11.71v30.69h-8.47V266.06z"/>
	</g>
	<g>
		<path d="M289.53,258.26h17.6c4.89,0,8.69,1.38,11.22,3.9c2.14,2.14,3.3,5.17,3.3,8.8v0.11    c0,6.21-3.35,10.12-8.25,11.93l9.4,13.75h-9.9l-8.25-12.32H298v12.32h-8.47V258.26z M306.58,276.95c4.12,0,6.49-2.2,6.49-5.44    v-0.11c0-3.63-2.53-5.5-6.65-5.5H298v11.05H306.58z"/>
		<path d="M326.27,282.18v-0.11c0-8.47,6.82-15.34,16-15.34c9.13,0,15.89,6.76,15.89,15.23v0.11    c0,8.47-6.82,15.34-16,15.34C333.03,297.41,326.27,290.65,326.27,282.18z M349.91,282.18v-0.11c0-4.34-3.13-8.14-7.75-8.14    c-4.78,0-7.64,3.68-7.64,8.03v0.11c0,4.34,3.13,8.14,7.75,8.14C347.05,290.21,349.91,286.52,349.91,282.18z"/>
		<path d="M371.86,292.9v3.85h-8.36v-40.14h8.36v14.9c2.04-2.75,4.84-4.78,9.18-4.78c6.87,0,13.42,5.39,13.42,15.23    v0.11c0,9.84-6.43,15.23-13.42,15.23C376.59,297.3,373.84,295.27,371.86,292.9z M386.1,282.07v-0.11c0-4.89-3.3-8.14-7.2-8.14    c-3.9,0-7.15,3.25-7.15,8.14v0.11c0,4.89,3.24,8.14,7.15,8.14C382.8,290.21,386.1,287.02,386.1,282.07z"/>
		<path d="M398.48,282.18v-0.11c0-8.47,6.82-15.34,16-15.34c9.13,0,15.89,6.76,15.89,15.23v0.11    c0,8.47-6.82,15.34-16,15.34C405.25,297.41,398.48,290.65,398.48,282.18z M422.13,282.18v-0.11c0-4.34-3.13-8.14-7.75-8.14    c-4.78,0-7.64,3.68-7.64,8.03v0.11c0,4.34,3.13,8.14,7.75,8.14C419.27,290.21,422.13,286.52,422.13,282.18z"/>
		<path d="M435.71,267.27h8.36v4.23c2.03-2.75,4.84-4.78,9.18-4.78c6.87,0,13.42,5.39,13.42,15.23v0.11    c0,9.84-6.43,15.23-13.42,15.23c-4.45,0-7.2-2.03-9.18-4.4v12.65h-8.36V267.27z M458.32,282.07v-0.11c0-4.89-3.3-8.14-7.2-8.14    s-7.15,3.25-7.15,8.14v0.11c0,4.89,3.25,8.14,7.15,8.14S458.32,287.02,458.32,282.07z"/>
		<path d="M469.81,292.85l3.57-5.5c3.19,2.31,6.54,3.52,9.29,3.52c2.42,0,3.52-0.88,3.52-2.2v-0.11    c0-1.81-2.86-2.42-6.1-3.41c-4.13-1.21-8.8-3.13-8.8-8.85v-0.11c0-5.99,4.84-9.35,10.78-9.35c3.74,0,7.81,1.26,11,3.41l-3.19,5.77    c-2.91-1.71-5.83-2.75-7.97-2.75c-2.04,0-3.08,0.88-3.08,2.04v0.11c0,1.65,2.8,2.42,5.99,3.52c4.13,1.37,8.91,3.35,8.91,8.74v0.11    c0,6.54-4.89,9.51-11.27,9.51C478.34,297.3,473.72,295.93,469.81,292.85z"/>
	</g>
	<g>
		<path d="M518.78,267.27h8.69l-11.33,30.19c-2.25,5.99-4.67,8.25-9.68,8.25c-3.02,0-5.28-0.77-7.42-2.04l2.8-6.05    c1.1,0.66,2.47,1.16,3.57,1.16c1.43,0,2.2-0.44,2.92-1.92l-11.55-29.59h8.85l6.71,20.07L518.78,267.27z"/>
		<path d="M528.79,282.18v-0.11c0-8.41,6.43-15.34,15.45-15.34c5.55,0,9.02,1.87,11.77,4.95l-5.11,5.5    c-1.87-1.98-3.74-3.25-6.71-3.25c-4.18,0-7.15,3.68-7.15,8.03v0.11c0,4.51,2.92,8.14,7.48,8.14c2.8,0,4.73-1.21,6.76-3.13    l4.89,4.95c-2.86,3.13-6.16,5.39-12.04,5.39C535.28,297.41,528.79,290.59,528.79,282.18z"/>
	</g>
	<g>
		<path d="M560.88,256.61h8.36v14.85c1.92-2.47,4.4-4.73,8.63-4.73c6.32,0,10.01,4.18,10.01,10.94v19.08h-8.36v-16.44    c0-3.96-1.87-5.99-5.06-5.99c-3.19,0-5.22,2.04-5.22,5.99v16.44h-8.36V256.61z"/>
		<path d="M593.06,282.18v-0.11c0-8.47,6.82-15.34,16-15.34c9.13,0,15.89,6.76,15.89,15.23v0.11    c0,8.47-6.82,15.34-16,15.34C599.82,297.41,593.06,290.65,593.06,282.18z M616.7,282.18v-0.11c0-4.34-3.13-8.14-7.75-8.14    c-4.78,0-7.64,3.68-7.64,8.03v0.11c0,4.34,3.13,8.14,7.75,8.14C613.84,290.21,616.7,286.52,616.7,282.18z"/>
		<path d="M630.73,256.61h8.36v40.14h-8.36V256.61z"/>
		<path d="M644.87,282.18v-0.11c0-8.47,6.82-15.34,16-15.34c9.13,0,15.89,6.76,15.89,15.23v0.11    c0,8.47-6.82,15.34-16,15.34C651.63,297.41,644.87,290.65,644.87,282.18z M668.51,282.18v-0.11c0-4.34-3.13-8.14-7.75-8.14    c-4.78,0-7.64,3.68-7.64,8.03v0.11c0,4.34,3.13,8.14,7.75,8.14C665.65,290.21,668.51,286.52,668.51,282.18z"/>
		<path d="M682.32,302.58l2.86-6.27c3.03,1.7,6.05,2.69,9.95,2.69c5.72,0,8.41-2.75,8.41-8.03v-1.43    c-2.47,2.97-5.17,4.78-9.62,4.78c-6.87,0-13.09-5-13.09-13.75v-0.11c0-8.8,6.32-13.75,13.09-13.75c4.56,0,7.26,1.92,9.51,4.4    v-3.85h8.36v22.82c0,5.28-1.27,9.13-3.74,11.6c-2.75,2.75-6.98,3.96-12.7,3.96C690.57,305.66,686.06,304.56,682.32,302.58z     M703.55,280.58v-0.11c0-4.01-3.13-6.82-7.2-6.82s-7.15,2.8-7.15,6.82v0.11c0,4.07,3.08,6.82,7.15,6.82    S703.55,284.6,703.55,280.58z"/>
		<path d="M737.98,267.27h8.69l-11.33,30.19c-2.25,5.99-4.67,8.25-9.68,8.25c-3.02,0-5.28-0.77-7.42-2.04l2.8-6.05    c1.1,0.66,2.47,1.16,3.57,1.16c1.43,0,2.2-0.44,2.92-1.92l-11.55-29.59h8.85l6.71,20.07L737.98,267.27z"/>
	</g>
	<g>
		<path d="M187.69,324.26h8.47v30.8h19.19v7.7h-27.66V324.26z"/>
		<path d="M219.1,354.29v-0.11c0-6.43,4.89-9.4,11.88-9.4c2.97,0,5.11,0.5,7.2,1.21v-0.5c0-3.46-2.14-5.39-6.32-5.39    c-3.19,0-5.44,0.61-8.14,1.59l-2.09-6.38c3.24-1.43,6.43-2.36,11.44-2.36c4.56,0,7.86,1.21,9.95,3.3c2.2,2.2,3.19,5.44,3.19,9.4    v17.1h-8.08v-3.19c-2.03,2.25-4.84,3.74-8.91,3.74C223.66,363.31,219.1,360.12,219.1,354.29z M238.29,352.37v-1.49    c-1.43-0.66-3.3-1.1-5.33-1.1c-3.57,0-5.77,1.43-5.77,4.07v0.11c0,2.25,1.87,3.57,4.56,3.57    C235.65,357.53,238.29,355.39,238.29,352.37z"/>
	</g>
	<g>
		<path d="M261.54,358.91v3.85h-8.36v-40.14h8.36v14.9c2.03-2.75,4.84-4.79,9.18-4.79c6.87,0,13.42,5.39,13.42,15.23    v0.11c0,9.84-6.43,15.23-13.42,15.23C266.27,363.31,263.52,361.27,261.54,358.91z M275.78,348.08v-0.11c0-4.89-3.3-8.14-7.2-8.14    c-3.9,0-7.15,3.24-7.15,8.14v0.11c0,4.89,3.24,8.14,7.15,8.14C272.48,356.21,275.78,353.03,275.78,348.08z"/>
	</g>
</g>
</svg>