<?xml version="1.0" encoding="UTF-8"?>
<svg version="1.1" viewBox="0 0 178.8 56" xmlns="http://www.w3.org/2000/svg" xmlns:cc="http://creativecommons.org/ns#" xmlns:dc="http://purl.org/dc/elements/1.1/" xmlns:rdf="http://www.w3.org/1999/02/22-rdf-syntax-ns#">
 <metadata>
  <rdf:RDF>
   <cc:Work rdf:about="">
    <dc:format>image/svg+xml</dc:format>
    <dc:type rdf:resource="http://purl.org/dc/dcmitype/StillImage"/>
    <dc:title/>
   </cc:Work>
  </rdf:RDF>
 </metadata>
 <g transform="translate(-105.59 -189.27)">
  <path d="m231.45 207.65c-0.51726-0.0284-0.96527-0.0828-1.4124-0.17148-1.1762-0.23327-2.1565-0.68235-2.9763-1.3634-0.17132-0.14233-0.53317-0.50433-0.67861-0.67891-0.91597-1.0994-1.4331-2.5297-1.5631-4.3235-0.029-0.39929-0.0324-0.91432-0.0327-4.7952v-4.0458h3.6654l4e-3 4.186c4e-3 4.5685-7.4e-4 4.2348 0.0624 4.6843 0.2096 1.4946 0.95838 2.5139 2.1508 2.9276 0.25299 0.0878 0.51012 0.14594 0.82973 0.1877 0.21681 0.0282 0.87845 0.0284 1.1049 1.4e-4 0.66793-0.0832 1.1874-0.27029 1.639-0.58995 0.72373-0.51224 1.1825-1.3509 1.3417-2.4524 0.0567-0.39208 0.0528-0.0735 0.0568-4.682l4e-3 -4.2615h3.6654v4.0512c0 4.0439-3e-3 4.3193-0.0381 4.779-0.14057 1.8014-0.68823 3.2687-1.6264 4.3575-0.16359 0.18986-0.47264 0.49499-0.65347 0.64519-1.1204 0.93057-2.5625 1.438-4.3813 1.5417-0.17011 0.0107-1.0032 0.0134-1.1605 4e-3zm-35.111-0.0211c-0.18077-0.012-0.49187-0.0401-0.63072-0.0585-1.5338-0.20383-2.8427-0.84817-3.9302-1.9347-0.11289-0.11275-0.26204-0.27017-0.33163-0.34992l-0.12661-0.145 0.0364-0.0382c0.02-0.0211 0.53013-0.58896 1.1336-1.262 0.60352-0.67303 1.1057-1.2326 1.1159-1.2435 0.0179-0.0191 0.0302-8e-3 0.30852 0.27055 0.3886 0.38915 0.60719 0.57358 0.94218 0.79497 0.5638 0.37255 1.1018 0.55192 1.7197 0.57326 0.96469 0.0333 1.6625-0.3463 2.0278-1.1031 0.15056-0.31193 0.2377-0.65366 0.29239-1.1466 0.0172-0.15504 0.0188-0.51243 0.022-4.9407l4e-3 -4.7736h3.752l-4e-3 4.9461c-3e-3 3.7042-6e-3 4.9813-0.0163 5.0863-0.0529 0.57969-0.11488 0.96417-0.22244 1.3801-0.22865 0.88404-0.61375 1.6189-1.1812 2.254-0.21851 0.24456-0.54061 0.52114-0.84085 0.72205-0.80339 0.53762-1.7322 0.84055-2.9111 0.94942-0.17831 0.0163-0.98705 0.03-1.159 0.0193zm9.0621-2.004v-1.8059h4.1617c2.289 0 4.1618-4e-3 4.1618-9e-3s-1.8726-1.6118-4.1613-3.5714l-4.1612-3.5631-4.9e-4 -2.1968c-2.5e-4 -1.2082 9.1e-4 -2.1968 5e-3 -2.1968 4e-3 0 7.5021 6.419 8.309 7.1125 0.0154 0.0133 0.47912-0.38039 4.1622-3.5353 2.2796-1.9527 4.153-3.557 4.1631-3.5651 0.0173-0.014 0.0184 0.11102 0.0184 2.1834v2.1983l-4.1591 3.562c-2.2875 1.9591-4.1607 3.5662-4.1627 3.5714-3e-3 5e-3 1.822 9e-3 4.1591 9e-3h4.1626v3.6119h-16.658z" fill="#bfbfbf" stroke-width=".010782"/>
  <path d="m147.4 192.27c-7.5824 0.0132-14.784 2.024-21.605 6.0327-6.8433 4.022-12.29 9.3462-16.341 15.972-0.57871 1.0128-0.86807 2.011-0.86807 2.9948s0.28936 1.9821 0.86807 2.9948c4.051 6.6262 9.4981 11.95 16.341 15.972 6.8206 4.0087 14.022 6.0195 21.605 6.0327v-5.5556c-6.7422-0.013-13.003-1.7706-18.783-5.2732-5.8016-3.5157-10.627-8.2394-14.475-14.171 4.3982-6.8288 9.9104-11.936 16.537-15.321-1.7651 3.0093-2.6476 6.2646-2.6476 9.7658 0 5.3531 1.9025 9.9321 5.7075 13.737 3.7871 3.7871 8.6961 6.3778 13.662 6.3944zm-6.0653 8.0906c3e-3 -1e-5 7e-3 -1e-5 0.0104 0 1.1505 0 2.0832 0.93268 2.0832 2.0832-1e-5 0.75025-0.40344 1.4426-1.0562 1.8124-0.44477 0.31267-0.87064 0.67143-1.277 1.0778-1.7651 1.7651-2.6476 3.8918-2.6476 6.3803 0 0.57871-0.20255 1.0706-0.60765 1.4757s-0.897 0.60765-1.4757 0.60765c-0.57871 0-1.0706-0.20255-1.4757-0.60765s-0.60765-0.897-0.60765-1.4757c0-3.617 1.2949-6.7203 3.8846-9.31 0.59654-0.59653 1.2209-1.123 1.8719-1.582 0.36762-0.29651 0.82507-0.4593 1.2974-0.46168z" fill="#bfbfbf" stroke-width=".043403"/>
  <g stroke-linecap="round" stroke-linejoin="round">
   <path d="m149.52 223.54h27.209l-1e-5 8.3038h-27.209z" fill="#007dad" stroke-width=".3032"/>
   <path d="m149.52 233.97h14.044v8.3038h-14.044z" fill="#f15a4e" stroke-width=".21783"/>
   <path d="m149.52 192.27h7.2202l-1e-5 8.3038h-7.2202z" fill="#ae619d" stroke-width=".15619"/>
   <path d="m149.52 202.69h21.551v8.3038h-21.551z" fill="#b2d349" stroke-width=".26984"/>
   <path d="m149.52 213.12h33.866v8.3038h-33.866z" fill="#fdb812" stroke-width=".33826"/>
  </g>
  <g transform="scale(.97253 1.0282)" fill="#404040" stroke-width=".31662" aria-label=" Visual Data Science Lab">
   <path d="m207.95 207.47-4.6353 10.638h-1.9453l-4.6505-10.638h2.1429l3.5411 8.2068 3.5715-8.2068z"/>
   <path d="m208.89 210h1.8997v8.1156h-1.8997zm0.95747-1.3374q-0.51673 0-0.86628-0.31916-0.34955-0.33435-0.34955-0.82068t0.34955-0.80548q0.34955-0.33435 0.86628-0.33435 0.51672 0 0.86627 0.31915 0.34955 0.30396 0.34955 0.77509 0 0.50153-0.34955 0.85108-0.33435 0.33435-0.86627 0.33435z"/>
   <path d="m215.71 218.22q-0.98786 0-1.9301-0.25836t-1.5046-0.6535l0.72949-1.4438q0.54712 0.36475 1.307 0.59272 0.77509 0.21277 1.5198 0.21277 1.7022 0 1.7022-0.89667 0-0.42554-0.44074-0.59272-0.42554-0.16717-1.383-0.31915-1.003-0.15198-1.6414-0.34955-0.62311-0.19757-1.0942-0.6839-0.45594-0.50153-0.45594-1.383 0-1.155 0.95746-1.8389 0.97266-0.6991 2.614-0.6991 0.83588 0 1.6718 0.19757 0.83588 0.18237 1.3678 0.50153l-0.7295 1.4438q-1.0334-0.60791-2.3253-0.60791-0.83588 0-1.2766 0.25836-0.42554 0.24316-0.42554 0.6535 0 0.45594 0.45594 0.65351 0.47113 0.18237 1.4438 0.34955 0.97266 0.15198 1.5958 0.34955t1.0638 0.6687q0.45594 0.47113 0.45594 1.3374 0 1.1398-0.98786 1.8237t-2.69 0.6839z"/>
   <path d="m228.82 210v8.1156h-1.8085v-1.0334q-0.45594 0.54712-1.1398 0.85108-0.6839 0.28875-1.4742 0.28875-1.6262 0-2.5684-0.89667-0.92707-0.91186-0.92707-2.69v-4.6353h1.8997v4.377q0 1.0942 0.48633 1.6414 0.50152 0.53193 1.4134 0.53193 1.0183 0 1.611-0.62311 0.60791-0.63831 0.60791-1.8237v-4.1034z"/>
   <path d="m234.34 209.9q1.7933 0 2.7356 0.86627 0.95746 0.85108 0.95746 2.5836v4.7569h-1.7933v-0.98786q-0.34955 0.53193-1.003 0.82068-0.63831 0.27356-1.5502 0.27356-0.91186 0-1.5958-0.30395-0.6839-0.31916-1.0638-0.86628-0.36475-0.56232-0.36475-1.2614 0-1.0942 0.80548-1.7478 0.82069-0.6687 2.5684-0.6687h2.0973v-0.12159q0-0.85107-0.51673-1.307-0.50152-0.45593-1.5046-0.45593-0.6839 0-1.3526 0.21277-0.65351 0.21277-1.1094 0.59271l-0.74469-1.383q0.6383-0.48633 1.535-0.74469t1.8997-0.25836zm-0.25836 6.9302q0.71429 0 1.2614-0.31915 0.56232-0.33435 0.79029-0.94226v-0.94227h-1.9605q-1.6414 0-1.6414 1.079 0 0.51672 0.41034 0.82068 0.41034 0.30395 1.1398 0.30395z"/>
   <path d="m240.39 206.83h1.8997v11.277h-1.8997z"/>
   <path d="m248.99 207.47h4.6505q1.7022 0 3.0244 0.6687 1.3222 0.65351 2.0517 1.8693 0.72949 1.2006 0.72949 2.7812t-0.72949 2.7964q-0.7295 1.2006-2.0517 1.8693-1.3222 0.65351-3.0244 0.65351h-4.6505zm4.5593 8.9667q1.1702 0 2.0517-0.44073 0.89667-0.45594 1.3678-1.2766 0.48633-0.83588 0.48633-1.9301t-0.48633-1.9149q-0.47113-0.83588-1.3678-1.2766-0.88147-0.45593-2.0517-0.45593h-2.5836v7.2949z"/>
   <path d="m264.39 209.9q1.7934 0 2.7356 0.86627 0.95746 0.85108 0.95746 2.5836v4.7569h-1.7933v-0.98786q-0.34955 0.53193-1.0031 0.82068-0.6383 0.27356-1.5502 0.27356t-1.5958-0.30395q-0.6839-0.31916-1.0638-0.86628-0.36474-0.56232-0.36474-1.2614 0-1.0942 0.80548-1.7478 0.82068-0.6687 2.5684-0.6687h2.0973v-0.12159q0-0.85107-0.51673-1.307-0.50153-0.45593-1.5046-0.45593-0.6839 0-1.3526 0.21277-0.6535 0.21277-1.1094 0.59271l-0.74469-1.383q0.63831-0.48633 1.535-0.74469t1.8997-0.25836zm-0.25836 6.9302q0.7143 0 1.2614-0.31915 0.56232-0.33435 0.79029-0.94226v-0.94227h-1.9605q-1.6414 0-1.6414 1.079 0 0.51672 0.41034 0.82068 0.41034 0.30395 1.1398 0.30395z"/>
   <path d="m275.32 217.67q-0.33435 0.27356-0.82068 0.41034-0.47113 0.13678-1.0031 0.13678-1.3374 0-2.0669-0.69909-0.72949-0.6991-0.72949-2.0365v-3.9058h-1.3374v-1.5198h1.3374v-1.8541h1.8997v1.8541h2.1733v1.5198h-2.1733v3.8602q0 0.59271 0.28876 0.91186 0.28876 0.30396 0.83588 0.30396 0.63831 0 1.0638-0.33435z"/>
   <path d="m279.9 209.9q1.7933 0 2.7356 0.86627 0.95746 0.85108 0.95746 2.5836v4.7569h-1.7933v-0.98786q-0.34955 0.53193-1.003 0.82068-0.63831 0.27356-1.5502 0.27356t-1.5958-0.30395q-0.6839-0.31916-1.0638-0.86628-0.36475-0.56232-0.36475-1.2614 0-1.0942 0.80548-1.7478 0.82068-0.6687 2.5684-0.6687h2.0973v-0.12159q0-0.85107-0.51673-1.307-0.50153-0.45593-1.5046-0.45593-0.6839 0-1.3526 0.21277-0.6535 0.21277-1.1094 0.59271l-0.7447-1.383q0.63831-0.48633 1.535-0.74469t1.8997-0.25836zm-0.25837 6.9302q0.7143 0 1.2614-0.31915 0.56232-0.33435 0.79029-0.94226v-0.94227h-1.9605q-1.6414 0-1.6414 1.079 0 0.51672 0.41034 0.82068 0.41034 0.30395 1.1398 0.30395z"/>
   <path d="m201.53 234.22q-1.231 0-2.3861-0.34955-1.1398-0.34955-1.8085-0.92707l0.6839-1.535q0.6535 0.51673 1.5958 0.85108 0.95746 0.31915 1.9149 0.31915 1.1854 0 1.7629-0.37994 0.59272-0.37995 0.59272-1.0031 0-0.45593-0.33435-0.74469-0.31916-0.30395-0.82069-0.47113-0.50152-0.16718-1.3678-0.37994-1.2158-0.28876-1.9757-0.57752-0.74469-0.28876-1.2918-0.89667-0.53193-0.62311-0.53193-1.6718 0-0.88147 0.47113-1.5958 0.48633-0.72949 1.4438-1.155 0.97266-0.42554 2.3709-0.42554 0.97266 0 1.9149 0.24317 0.94227 0.24316 1.6262 0.69909l-0.62311 1.535q-0.6991-0.41034-1.459-0.62311t-1.4742-0.21277q-1.1702 0-1.7477 0.39515-0.56232 0.39514-0.56232 1.0486 0 0.45594 0.31915 0.7447 0.33435 0.28875 0.83588 0.45593t1.3678 0.37995q1.1854 0.27356 1.9453 0.57751 0.75989 0.28876 1.2918 0.89667 0.54713 0.60791 0.54713 1.6414 0 0.88148-0.48633 1.5958-0.47114 0.7143-1.4438 1.1398-0.97265 0.42554-2.3708 0.42554z"/>
   <path d="m211.25 234.17q-1.2614 0-2.2645-0.53192-1.0031-0.53192-1.5654-1.4742-0.56232-0.95746-0.56232-2.1581 0-1.2006 0.56232-2.1429 0.56232-0.94227 1.5502-1.4742 1.003-0.53192 2.2797-0.53192 1.2006 0 2.0973 0.48633 0.91187 0.48633 1.3678 1.3982l-1.459 0.85108q-0.34955-0.56232-0.88147-0.83588-0.51673-0.28876-1.1398-0.28876-1.0638 0-1.7629 0.6991-0.6991 0.6839-0.6991 1.8389 0 1.155 0.6839 1.8541 0.6991 0.6839 1.7781 0.6839 0.62311 0 1.1398-0.27356 0.53192-0.28876 0.88147-0.85108l1.459 0.85108q-0.47114 0.91187-1.383 1.4134-0.89667 0.48633-2.0821 0.48633z"/>
   <path d="m216.26 225.95h1.8997v8.1156h-1.8997zm0.95747-1.3374q-0.51673 0-0.86628-0.31916-0.34955-0.33435-0.34955-0.82068t0.34955-0.80548q0.34955-0.33435 0.86628-0.33435 0.51672 0 0.86627 0.31915 0.34955 0.30396 0.34955 0.77509 0 0.50153-0.34955 0.85108-0.33435 0.33435-0.86627 0.33435z"/>
   <path d="m228.2 230.06q0 0.19757-0.0304 0.56232h-6.3679q0.16718 0.89667 0.86628 1.4286 0.7143 0.51673 1.7629 0.51673 1.3374 0 2.2037-0.88148l1.0183 1.1702q-0.54712 0.65351-1.383 0.98786t-1.8845 0.33435q-1.3374 0-2.3557-0.53192t-1.5806-1.4742q-0.54712-0.95746-0.54712-2.1581 0-1.1854 0.53192-2.1277 0.54712-0.95746 1.5046-1.4894 0.95747-0.53192 2.1581-0.53192 1.1854 0 2.1125 0.53192 0.94226 0.51672 1.459 1.4742 0.53193 0.94226 0.53193 2.1885zm-4.1034-2.6748q-0.91187 0-1.5502 0.54712-0.62311 0.53192-0.75989 1.4286h4.6049q-0.12158-0.88147-0.74469-1.4286t-1.5502-0.54712z"/>
   <path d="m234.54 225.86q1.535 0 2.462 0.89667 0.92707 0.89667 0.92707 2.6596v4.6505h-1.8997v-4.4074q0-1.0638-0.50152-1.5958-0.50153-0.54712-1.4286-0.54712-1.0486 0-1.6566 0.6383-0.60791 0.62311-0.60791 1.8085v4.1034h-1.8997v-8.1156h1.8085v1.0486q0.47114-0.56232 1.1854-0.85108 0.7143-0.28875 1.611-0.28875z"/>
   <path d="m244.09 234.17q-1.2614 0-2.2645-0.53192-1.003-0.53192-1.5654-1.4742-0.56232-0.95746-0.56232-2.1581 0-1.2006 0.56232-2.1429 0.56232-0.94227 1.5502-1.4742 1.003-0.53192 2.2797-0.53192 1.2006 0 2.0973 0.48633 0.91187 0.48633 1.3678 1.3982l-1.459 0.85108q-0.34955-0.56232-0.88148-0.83588-0.51672-0.28876-1.1398-0.28876-1.0638 0-1.763 0.6991-0.6991 0.6839-0.6991 1.8389 0 1.155 0.68391 1.8541 0.69909 0.6839 1.7781 0.6839 0.62311 0 1.1398-0.27356 0.53193-0.28876 0.88148-0.85108l1.459 0.85108q-0.47113 0.91187-1.383 1.4134-0.89667 0.48633-2.0821 0.48633z"/>
   <path d="m256.61 230.06q0 0.19757-0.0304 0.56232h-6.3679q0.16717 0.89667 0.86627 1.4286 0.7143 0.51673 1.763 0.51673 1.3374 0 2.2037-0.88148l1.0182 1.1702q-0.54712 0.65351-1.383 0.98786t-1.8845 0.33435q-1.3374 0-2.3556-0.53192-1.0183-0.53192-1.5806-1.4742-0.54712-0.95746-0.54712-2.1581 0-1.1854 0.53193-2.1277 0.54712-0.95746 1.5046-1.4894t2.1581-0.53192q1.1854 0 2.1125 0.53192 0.94226 0.51672 1.459 1.4742 0.53192 0.94226 0.53192 2.1885zm-4.1034-2.6748q-0.91187 0-1.5502 0.54712-0.62311 0.53192-0.75989 1.4286h4.6049q-0.12158-0.88147-0.74469-1.4286t-1.5502-0.54712z"/>
   <path d="m262.63 223.43h1.9757v8.9667h5.5624v1.6718h-7.5381z"/>
   <path d="m274.67 225.86q1.7933 0 2.7356 0.86627 0.95746 0.85108 0.95746 2.5836v4.7569h-1.7933v-0.98786q-0.34955 0.53192-1.003 0.82068-0.63831 0.27356-1.5502 0.27356t-1.5958-0.30395q-0.6839-0.31916-1.0638-0.86628-0.36475-0.56232-0.36475-1.2614 0-1.0942 0.80548-1.7477 0.82069-0.66871 2.5684-0.66871h2.0973v-0.12158q0-0.85107-0.51673-1.307-0.50152-0.45593-1.5046-0.45593-0.6839 0-1.3526 0.21277-0.65351 0.21277-1.1094 0.59271l-0.74469-1.383q0.6383-0.48633 1.535-0.74469t1.8997-0.25836zm-0.25836 6.9302q0.71429 0 1.2614-0.31915 0.56232-0.33435 0.79029-0.94226v-0.94227h-1.9605q-1.6414 0-1.6414 1.079 0 0.51672 0.41034 0.82068 0.41034 0.30395 1.1398 0.30395z"/>
   <path d="m285.22 225.86q1.1854 0 2.1125 0.51672 0.94226 0.51673 1.4742 1.459 0.53192 0.94226 0.53192 2.1733 0 1.231-0.53192 2.1885-0.53193 0.94226-1.4742 1.459-0.92707 0.51672-2.1125 0.51672-0.83588 0-1.535-0.28876-0.6839-0.28875-1.155-0.86627v1.0486h-1.8085v-11.277h1.8997v4.149q0.48633-0.53192 1.1398-0.80548 0.6687-0.27356 1.459-0.27356zm-0.21277 6.687q1.0486 0 1.7174-0.6991 0.6839-0.6991 0.6839-1.8389 0-1.1398-0.6839-1.8389-0.66871-0.6991-1.7174-0.6991-0.6839 0-1.231 0.31916-0.54712 0.30395-0.86627 0.88147t-0.31915 1.3374 0.31915 1.3374q0.31915 0.57752 0.86627 0.89667 0.54713 0.30396 1.231 0.30396z"/>
  </g>
 </g>
</svg>
