<svg viewBox="0 0 80 80" ><g><path d="m41.814 15c-7.5824 0.0132-14.784 2.024-21.605 6.0327-6.8433 4.022-12.29 9.3462-16.341 15.972-0.57871 1.0128-0.86807 2.011-0.86807 2.9948s0.28936 1.9821 0.86807 2.9948c4.051 6.6262 9.4981 11.95 16.341 15.972 6.8206 4.0087 14.022 6.0195 21.605 6.0327v-5.5556c-6.7422-0.013-13.003-1.7706-18.783-5.2732-5.8016-3.5157-10.627-8.2394-14.475-14.171 4.3982-6.8288 9.9104-11.936 16.537-15.321-1.7651 3.0093-2.6476 6.2646-2.6476 9.7658 0 5.3531 1.9025 9.9321 5.7075 13.737 3.7871 3.7871 8.6961 6.3778 13.662 6.3944zm-6.0653 8.0906c3e-3 -1e-5 7e-3 -1e-5 0.0104 0 1.1505 0 2.0832 0.93268 2.0832 2.0832-1e-5 0.75025-0.40344 1.4426-1.0562 1.8124-0.44477 0.31267-0.87064 0.67143-1.277 1.0778-1.7651 1.7651-2.6476 3.8918-2.6476 6.3803 0 0.57871-0.20255 1.0706-0.60765 1.4757s-0.897 0.60765-1.4757 0.60765c-0.57871 0-1.0706-0.20255-1.4757-0.60765s-0.60765-0.897-0.60765-1.4757c0-3.617 1.2949-6.7203 3.8846-9.31 0.59654-0.59653 1.2209-1.123 1.8719-1.582 0.36762-0.29651 0.82507-0.4593 1.2974-0.46168z" fill="#bfbfbf"/><path d="m43.934 46.272h27.209l-1e-5 8.3038h-27.209z" fill="#007dad"/><path d="m43.934 56.696h14.044v8.3038h-14.044z" fill="#f15a4e"/><path d="m43.934 15h7.2202l-1e-5 8.3038h-7.2202z" fill="#ae619d"/><path d="m43.934 25.424h21.551v8.3038h-21.551z" fill="#b2d349"/><path d="m43.934 35.848h33.866v8.3038h-33.866z" fill="#fdb812"/></g></svg>
